<svg width="190" height="150" xmlns="http://www.w3.org/2000/svg" xmlns:svg="http://www.w3.org/2000/svg" xmlns:xlink="http://www.w3.org/1999/xlink">
 <!-- Created with SVG-edit - http://svg-edit.googlecode.com/ -->
 <defs>
  <symbol viewBox="0 0 190 150" id="svg_9" xmlns:svg="http://www.w3.org/2000/svg" xmlns="http://www.w3.org/2000/svg">
   <metadata id="svg_8">image/svg+xml</metadata>
   <g id="svg_2">
    <text xml:space="preserve" x="28.72619" y="55.85119" id="svg_6" stroke-width="0.26458" fill="#000000" font-family="Mangal" font-size="10.58333px" font-weight="normal" font-style="normal">
     <tspan id="svg_7" x="28.72619" y="55.85119" stroke-width="0.26458">Remi SARZIER</tspan>
    </text>
    <rect id="svg_5" width="0" height="22.85714" x="257.14285" y="213.94826"/>
    <path id="svg_4" d="m77.86309,64.16666c1.7435,1.44029 -1.08129,3.0608 -2.39385,2.89782c-3.55695,-0.44166 -4.54183,-4.84999 -3.40178,-7.68552c2.03927,-5.07209 8.47638,-6.25659 12.97718,-3.90575c6.6051,3.44997 8.01644,12.14991 4.40972,18.26886c-4.8072,8.15559 -15.83988,9.79514 -23.56052,4.91368c-9.71564,-6.14283 -11.58354,-19.53763 -5.41765,-28.85219c7.46773,-11.28118 23.23973,-13.37753 34.14385,-5.92161c12.85013,8.78654 15.17503,26.94457 6.42558,39.43552c-10.10158,14.42129 -30.65121,16.97487 -44.72718,6.92954c-15.99401,-11.41413 -18.77636,-34.35914 -7.43351,-50.01885c12.72495,-17.56783 38.06799,-20.57902 55.31051,-7.93748c19.14247,14.03451 22.38259,41.77755 8.44145,60.60219" stroke-width="0.26458" stroke="#000000" fill-rule="evenodd" fill="none"/>
    <path id="svg_3" d="m65.0119,48.29166c0.11371,-0.90965 1.2823,-0.29551 1.51191,0.18899c0.62223,1.31298 -0.67189,2.60838 -1.88988,2.83482c-2.17871,0.40505 -3.9835,-1.53978 -4.15774,-3.59077c-0.2557,-3.00991 2.414,-5.38428 5.29166,-5.48066c3.83547,-0.12844 6.7951,3.28975 6.80358,6.99256c0.01066,4.65961 -4.16605,8.21092 -8.69345,8.12649c-5.48329,-0.10225 -9.62961,-5.04263 -9.44941,-10.39434c0.21236,-6.30681 5.91937,-11.05008 12.09523,-10.77232c7.13027,0.32068 12.47176,6.79623 12.09524,13.79612c-0.42781,7.95372 -7.67317,13.89427 -15.49701,13.41816c-8.77717,-0.53412 -15.31739,-8.55017 -14.74108,-17.19791c0.63981,-9.60063 9.42722,-16.74097 18.8988,-16.06399" stroke-width="0.26458" stroke="#000000" fill-rule="evenodd" fill="none"/>
   </g>
  </symbol>
 </defs>
 <g>
  <title>Layer 1</title>
  <use id="svg_10" xlink:href="#svg_9" transform="matrix(1.8325041885011428,0,0,1.716951460220424,-47.96021972580008,-27.159374023359725) " y="0" x="0"/>
  <g id="svg_11"/>
 </g>
</svg>